<svg width="21" height="19" viewBox="0 0 21 19" fill="none" xmlns="http://www.w3.org/2000/svg">
<path fill-rule="evenodd" clip-rule="evenodd" d="M10.5 2.09C10.5 2.09 12.105 0 15 0C18.038 0 20.5 2.462 20.5 5.5C20.5 9.30488 16.4125 13.0024 14.6557 14.5916C14.4866 14.7445 14.3392 14.8779 14.219 14.99C12.642 16.46 10.5 18.35 10.5 18.35C10.5 18.35 8.358 16.46 6.781 14.99C6.66083 14.8779 6.51337 14.7445 6.34433 14.5916C4.58753 13.0024 0.5 9.30489 0.5 5.5C0.5 2.462 2.962 0 6 0C8.895 0 10.5 2.09 10.5 2.09Z" fill="#310A90"/>
</svg>
