<svg width="18" height="19" viewBox="0 0 18 19" fill="none" xmlns="http://www.w3.org/2000/svg">
<path fill-rule="evenodd" clip-rule="evenodd" d="M15.099 12.973C15.6 13.061 16.393 13.098 17.023 13.113C17.568 13.126 18 13.57 18 14.115V17.625C18 18.063 17.672 18.625 17 18.625C12.461 18.625 8.126 16.785 4.966 13.659C1.84 10.499 0 6.164 0 1.625C0 0.953 0.562 0.625 1 0.625H4.51C5.055 0.625 5.499 1.057 5.512 1.602C5.528 2.232 5.564 3.025 5.653 3.526C5.748 4.068 5.935 4.72 6.077 5.178C6.189 5.538 6.09 5.93 5.824 6.197L3.62 8.415C4.427 9.947 5.367 11.174 6.412 12.213C7.451 13.258 8.678 14.198 10.21 15.005L12.427 12.801C12.694 12.535 13.086 12.436 13.446 12.548C13.905 12.691 14.557 12.877 15.099 12.973Z" fill="#310A90"/>
</svg>
